<svg width="48" height="48" viewBox="0 0 48 48" fill="none" xmlns="http://www.w3.org/2000/svg">
<path d="M34 3C37.3641 3 40.1366 4.68992 42.0391 7.13574C43.9331 9.57091 45 12.7901 45 16C45 18.2472 44.4716 20.8578 43.6973 23.1523C42.9334 25.416 41.8736 27.5404 40.707 28.707C40.5971 28.817 40.4086 29.1064 40.1611 29.666C39.9265 30.1967 39.6795 30.8727 39.417 31.6602C39.1554 32.4451 38.8857 33.3172 38.5996 34.2383C38.3147 35.1553 38.0144 36.1178 37.6982 37.0664C37.0708 38.9486 36.357 40.8454 35.5205 42.2842C35.1022 43.0037 34.6243 43.6602 34.0693 44.1465C33.5071 44.639 32.8134 45 32 45C29.4181 45 27.7077 43.9758 26.6465 42.3623C25.6424 40.8355 25.2854 38.876 25.1006 37.1035C25.007 36.2063 24.9537 35.3047 24.8975 34.499C24.84 33.6766 24.78 32.9579 24.6758 32.3584C24.5684 31.7409 24.4317 31.3676 24.2939 31.166C24.2004 31.0291 24.1386 31 24 31C23.8614 31 23.7996 31.0291 23.7061 31.166C23.5683 31.3676 23.4316 31.7409 23.3242 32.3584C23.22 32.9579 23.16 33.6766 23.1025 34.499C23.0463 35.3047 22.993 36.2063 22.8994 37.1035C22.7146 38.876 22.3576 40.8355 21.3535 42.3623C20.2923 43.9758 18.5819 45 16 45C15.1866 45 14.4929 44.639 13.9307 44.1465C13.3757 43.6602 12.8978 43.0037 12.4795 42.2842C11.643 40.8454 10.9292 38.9486 10.3018 37.0664C9.98557 36.1178 9.68525 35.1553 9.40039 34.2383C9.11426 33.3172 8.84465 32.4451 8.58301 31.6602C8.32051 30.8727 8.07354 30.1967 7.83887 29.666C7.59142 29.1064 7.40289 28.817 7.29297 28.707C6.12636 27.5404 5.06664 25.416 4.30273 23.1523C3.52842 20.8578 3 18.2472 3 16C3 12.7901 4.06692 9.57091 5.96094 7.13574C7.86338 4.68992 10.6359 3 14 3C17.145 3 18.771 3.53128 20.1211 4.07129C21.3892 4.57853 22.2193 5 24 5C25.7807 5 26.6108 4.57853 27.8789 4.07129C29.229 3.53128 30.855 3 34 3Z" fill="#A3B7C5" stroke="#5F4A37" stroke-width="2"/>
<path d="M34 18H29V13H26V18H22V10H19V18H13.8V20H19V28H22V20H26V25H29V20H34V18Z" fill="#5F4A37"/>
</svg>
