<svg width="48" height="48" viewBox="0 0 48 48" fill="none" xmlns="http://www.w3.org/2000/svg">
<mask id="path-1-outside-1_1414_180" maskUnits="userSpaceOnUse" x="1.62" y="1" width="45" height="46" fill="black">
<rect fill="white" x="1.62" y="1" width="45" height="46"/>
<path d="M35.72 3L25.82 12.86L30.06 17.1L32.18 15L30.06 12.86L35.72 7.2L37.84 9.32L40 7.2M42.8 7.2L31.12 18.88L26.86 20.3L6 41.14L8.86 44L20.16 32.66L28.66 41.14L37.14 32.66L28.66 24.18L29 23.8L33.26 22.38L42.8 12.86C44.36 11.3 44.36 8.76 42.8 7.2ZM13.1 8.62L4.62 17.1L14.52 27L23 18.52M36.44 36.2L32.18 40.44L35 43.26L39.26 39L36.44 36.2Z"/>
</mask>
<path d="M35.72 3L25.82 12.86L30.06 17.1L32.18 15L30.06 12.86L35.72 7.2L37.84 9.32L40 7.2M42.8 7.2L31.12 18.88L26.86 20.3L6 41.14L8.86 44L20.16 32.66L28.66 41.14L37.14 32.66L28.66 24.18L29 23.8L33.26 22.38L42.8 12.86C44.36 11.3 44.36 8.76 42.8 7.2ZM13.1 8.62L4.62 17.1L14.52 27L23 18.52M36.44 36.2L32.18 40.44L35 43.26L39.26 39L36.44 36.2Z" fill="#A3B7C5"/>
<path d="M25.82 12.86L24.4087 11.4429L22.9887 12.8571L24.4058 14.2742L25.82 12.86ZM30.06 17.1L28.6458 18.5142L30.0533 19.9217L31.4675 18.5209L30.06 17.1ZM32.18 15L33.5875 16.4209L35.0085 15.0133L33.6008 13.5924L32.18 15ZM30.06 12.86L28.6458 11.4458L27.2382 12.8534L28.6392 14.2676L30.06 12.86ZM35.72 7.2L37.1342 5.78579L35.72 4.37157L34.3058 5.78579L35.72 7.2ZM37.84 9.32L36.4258 10.7342L37.8268 12.1353L39.2409 10.7474L37.84 9.32ZM42.8 7.2L44.2142 5.78579L42.8 4.37157L41.3858 5.78579L42.8 7.2ZM31.12 18.88L31.7525 20.7774L32.2004 20.6281L32.5342 20.2942L31.12 18.88ZM26.86 20.3L26.2275 18.4026L25.7801 18.5518L25.4465 18.8851L26.86 20.3ZM6 41.14L4.58646 39.7251L3.17089 41.1393L4.58578 42.5542L6 41.14ZM8.86 44L7.44578 45.4142L8.8625 46.8309L10.2767 45.4117L8.86 44ZM20.16 32.66L21.5725 31.2441L20.1558 29.8307L18.7433 31.2483L20.16 32.66ZM28.66 41.14L27.2475 42.5559L28.6617 43.9668L30.0742 42.5542L28.66 41.14ZM37.14 32.66L38.5542 34.0742L39.9684 32.66L38.5542 31.2458L37.14 32.66ZM28.66 24.18L27.1695 22.8464L25.908 24.2564L27.2458 25.5942L28.66 24.18ZM29 23.8L28.3675 21.9026L27.8637 22.0706L27.5095 22.4664L29 23.8ZM33.26 22.38L33.8925 24.2774L34.3393 24.1284L34.6727 23.7957L33.26 22.38ZM42.8 12.86L44.2127 14.2757L44.2142 14.2742L42.8 12.86ZM4.62 17.1L3.20578 15.6858L1.79157 17.1L3.20578 18.5142L4.62 17.1ZM14.52 27L13.1058 28.4142L14.52 29.8284L15.9342 28.4142L14.52 27ZM36.44 36.2L37.8492 34.7808L36.4383 33.3799L35.0291 34.7825L36.44 36.2ZM32.18 40.44L30.7691 39.0225L29.3482 40.4367L30.7658 41.8542L32.18 40.44ZM35 43.26L33.5858 44.6742L35 46.0884L36.4142 44.6742L35 43.26ZM39.26 39L40.6742 40.4142L42.0935 38.995L40.6692 37.5808L39.26 39ZM35.72 3L34.3087 1.58293L24.4087 11.4429L25.82 12.86L27.2313 14.2771L37.1313 4.41707L35.72 3ZM25.82 12.86L24.4058 14.2742L28.6458 18.5142L30.06 17.1L31.4742 15.6858L27.2342 11.4458L25.82 12.86ZM30.06 17.1L31.4675 18.5209L33.5875 16.4209L32.18 15L30.7725 13.5791L28.6525 15.6791L30.06 17.1ZM32.18 15L33.6008 13.5924L31.4808 11.4524L30.06 12.86L28.6392 14.2676L30.7592 16.4076L32.18 15ZM30.06 12.86L31.4742 14.2742L37.1342 8.61421L35.72 7.2L34.3058 5.78579L28.6458 11.4458L30.06 12.86ZM35.72 7.2L34.3058 8.61421L36.4258 10.7342L37.84 9.32L39.2542 7.90579L37.1342 5.78579L35.72 7.2ZM37.84 9.32L39.2409 10.7474L41.4009 8.62737L40 7.2L38.5991 5.77263L36.4391 7.89263L37.84 9.32ZM42.8 7.2L41.3858 5.78579L29.7058 17.4658L31.12 18.88L32.5342 20.2942L44.2142 8.61421L42.8 7.2ZM31.12 18.88L30.4875 16.9826L26.2275 18.4026L26.86 20.3L27.4925 22.1974L31.7525 20.7774L31.12 18.88ZM26.86 20.3L25.4465 18.8851L4.58646 39.7251L6 41.14L7.41353 42.5549L28.2735 21.7149L26.86 20.3ZM6 41.14L4.58578 42.5542L7.44578 45.4142L8.86 44L10.2742 42.5858L7.41421 39.7258L6 41.14ZM8.86 44L10.2767 45.4117L21.5767 34.0717L20.16 32.66L18.7433 31.2483L7.44329 42.5883L8.86 44ZM20.16 32.66L18.7475 34.0759L27.2475 42.5559L28.66 41.14L30.0725 39.7241L21.5725 31.2441L20.16 32.66ZM28.66 41.14L30.0742 42.5542L38.5542 34.0742L37.14 32.66L35.7258 31.2458L27.2458 39.7258L28.66 41.14ZM37.14 32.66L38.5542 31.2458L30.0742 22.7658L28.66 24.18L27.2458 25.5942L35.7258 34.0742L37.14 32.66ZM28.66 24.18L30.1505 25.5136L30.4905 25.1336L29 23.8L27.5095 22.4664L27.1695 22.8464L28.66 24.18ZM29 23.8L29.6325 25.6974L33.8925 24.2774L33.26 22.38L32.6275 20.4826L28.3675 21.9026L29 23.8ZM33.26 22.38L34.6727 23.7957L44.2127 14.2757L42.8 12.86L41.3873 11.4443L31.8473 20.9643L33.26 22.38ZM42.8 12.86L44.2142 14.2742C46.5553 11.9332 46.5553 8.12683 44.2142 5.78579L42.8 7.2L41.3858 8.61421C42.1647 9.39316 42.1647 10.6668 41.3858 11.4458L42.8 12.86ZM13.1 8.62L11.6858 7.20579L3.20578 15.6858L4.62 17.1L6.03421 18.5142L14.5142 10.0342L13.1 8.62ZM4.62 17.1L3.20578 18.5142L13.1058 28.4142L14.52 27L15.9342 25.5858L6.03421 15.6858L4.62 17.1ZM14.52 27L15.9342 28.4142L24.4142 19.9342L23 18.52L21.5858 17.1058L13.1058 25.5858L14.52 27ZM36.44 36.2L35.0291 34.7825L30.7691 39.0225L32.18 40.44L33.5909 41.8575L37.8509 37.6175L36.44 36.2ZM32.18 40.44L30.7658 41.8542L33.5858 44.6742L35 43.26L36.4142 41.8458L33.5942 39.0258L32.18 40.44ZM35 43.26L36.4142 44.6742L40.6742 40.4142L39.26 39L37.8458 37.5858L33.5858 41.8458L35 43.26ZM39.26 39L40.6692 37.5808L37.8492 34.7808L36.44 36.2L35.0308 37.6192L37.8508 40.4192L39.26 39Z" fill="#5F4A37" mask="url(#path-1-outside-1_1414_180)"/>
</svg>
