<svg width="48" height="48" viewBox="0 0 48 48" fill="none" xmlns="http://www.w3.org/2000/svg">
<path d="M31.2129 3.87292C32.3667 2.7191 34.3005 2.68591 35.4472 3.87292L44.1084 12.5341L44.2177 12.6444C45.3116 13.8002 45.2505 15.6634 44.1269 16.787L44.125 16.7889L36.874 24.0018L44.1474 31.2928L44.2539 31.4052C45.3244 32.587 45.2673 34.3508 44.165 35.5096L44.1474 35.5272L35.4668 44.2069L35.458 44.2157L35.4492 44.2255C34.8696 44.776 34.1247 45.08 33.3398 45.08C32.5779 45.0799 31.8161 44.8102 31.2129 44.2069L31.2109 44.205L23.9961 36.954L16.705 44.2089C15.525 45.3869 13.6867 45.3615 12.4912 44.2245L12.4814 44.2157L3.77536 35.5096C2.63757 34.3135 2.61295 32.4728 3.79294 31.2928L11.0449 24.0028L3.79489 16.7889L3.79294 16.787C2.63306 15.6271 2.60525 13.6784 3.81149 12.5341L12.4746 3.87097C13.0366 3.31226 13.7973 2.99798 14.5898 2.99792C15.3824 2.99792 16.143 3.31222 16.705 3.87097L23.9961 11.1249L31.2109 3.87488L31.2129 3.87292ZM27.4756 33.4384L33.3174 39.2655L39.1465 33.4208L33.3203 27.5946L27.4756 33.4384ZM24 26.9999C23.7348 26.9999 23.4805 27.1053 23.2929 27.2928C23.1054 27.4804 23 27.7347 23 27.9999C23 28.2651 23.1054 28.5194 23.2929 28.7069C23.4805 28.8944 23.7348 28.9999 24 28.9999C24.2652 28.9999 24.5195 28.8944 24.707 28.7069C24.8945 28.5194 25 28.2651 25 27.9999C24.9999 27.7347 24.8945 27.4804 24.707 27.2928C24.5195 27.1054 24.2651 26.9999 24 26.9999ZM20 22.9999C19.7348 22.9999 19.4805 23.1053 19.2929 23.2928C19.1054 23.4804 19 23.7347 19 23.9999C19 24.2651 19.1054 24.5194 19.2929 24.7069C19.4805 24.8944 19.7348 24.9999 20 24.9999C20.2652 24.9999 20.5195 24.8944 20.707 24.7069C20.8945 24.5194 21 24.2651 21 23.9999C20.9999 23.7347 20.8945 23.4804 20.707 23.2928C20.5195 23.1054 20.2651 22.9999 20 22.9999ZM28 22.9999C27.7348 22.9999 27.4805 23.1053 27.2929 23.2928C27.1054 23.4804 27 23.7347 27 23.9999C27 24.2651 27.1054 24.5194 27.2929 24.7069C27.4805 24.8944 27.7348 24.9999 28 24.9999C28.2652 24.9999 28.5195 24.8944 28.707 24.7069C28.8945 24.5194 29 24.2651 29 23.9999C28.9999 23.7347 28.8945 23.4804 28.707 23.2928C28.5195 23.1054 28.2651 22.9999 28 22.9999ZM24 18.9999C23.7348 18.9999 23.4805 19.1053 23.2929 19.2928C23.1054 19.4804 23 19.7347 23 19.9999C23 20.2651 23.1054 20.5194 23.2929 20.7069C23.4805 20.8944 23.7348 20.9999 24 20.9999C24.2652 20.9999 24.5195 20.8944 24.707 20.7069C24.8945 20.5194 25 20.2651 25 19.9999C24.9999 19.7347 24.8945 19.4804 24.707 19.2928C24.5195 19.1054 24.2651 18.9999 24 18.9999ZM8.73532 14.6786L14.5781 20.5048L20.4062 14.66L14.58 8.83386L8.73532 14.6786Z" fill="#A3B7C5" stroke="#5F4A37" stroke-width="2"/>
</svg>
