<svg width="48" height="48" viewBox="0 0 48 48" fill="none" xmlns="http://www.w3.org/2000/svg">
<path d="M39 35V38C39 38.8272 38.72 39.5944 38.1572 40.1572C37.5944 40.72 36.8272 41 36 41H12C11.1728 41 10.4056 40.72 9.84277 40.1572C9.27999 39.5944 9 38.8272 9 38V35H39ZM24.8643 7.49609L31.2412 18.4277L41.3271 9.25977L43.5117 7.27441L42.9834 10.1787L38.9834 32.1787L38.835 33H9.16504L9.0166 32.1787L5.0166 10.1787L4.48828 7.27441L6.67285 9.25977L16.7578 18.4277L23.1357 7.49609L24 6.01562L24.8643 7.49609Z" fill="#A3B7C5" stroke="#5F4A37" stroke-width="2"/>
</svg>
