<svg width="48" height="48" viewBox="0 0 48 48" fill="none" xmlns="http://www.w3.org/2000/svg">
<path d="M19.6035 23.8037V23.8047C19.6039 23.8053 19.6046 23.8065 19.6055 23.8076C19.6075 23.8103 19.6111 23.8148 19.6152 23.8203C19.6237 23.8317 19.6363 23.8494 19.6533 23.8721C19.6873 23.9175 19.7386 23.9845 19.8047 24.0723C19.937 24.2478 20.1306 24.5045 20.377 24.8252C20.8699 25.467 21.5719 26.3665 22.4033 27.3965C24.0705 29.4618 26.244 32.0301 28.3066 34.0928C30.0347 35.8208 31.7557 36.9678 33.1816 37.9863C35.2245 39.306 35.7947 42.22 33.9072 44.1074C33.3689 44.6458 32.6459 45.0373 31.8877 45.2021C31.1431 45.364 30.2905 45.3193 29.5342 44.8848C27.835 44.0321 25.367 42.3764 22.7217 39.9346L22.707 39.9209L22.6934 39.9072C20.556 37.7699 18.3292 35.1373 16.6465 33.0527C15.8032 32.008 15.0925 31.0952 14.5918 30.4434C14.3415 30.1175 14.1434 29.8567 14.0078 29.6768C13.94 29.5868 13.887 29.5172 13.8516 29.4697C13.8338 29.446 13.8207 29.4274 13.8115 29.415C13.807 29.409 13.8032 29.4046 13.8008 29.4014C13.7996 29.3998 13.7985 29.3983 13.7979 29.3975L13.7969 29.3965V29.3955L13.2949 28.7188L13.877 28.1094L18.0762 23.71L18.8965 22.8516L19.6035 23.8037ZM29.3955 13.7969H29.3965L29.3975 13.7979C29.3983 13.7985 29.3998 13.7996 29.4014 13.8008C29.4046 13.8032 29.409 13.807 29.415 13.8115C29.4274 13.8207 29.446 13.8338 29.4697 13.8516C29.5172 13.887 29.5868 13.94 29.6768 14.0078C29.8567 14.1434 30.1175 14.3415 30.4434 14.5918C31.0952 15.0925 32.008 15.8032 33.0527 16.6465C34.8767 18.1189 37.1199 20.0078 39.084 21.8887L39.9072 22.6934L39.9209 22.707L39.9346 22.7217C42.3764 25.367 44.0321 27.835 44.8848 29.5342C45.3193 30.2905 45.364 31.1431 45.2021 31.8877C45.0373 32.6459 44.6458 33.3689 44.1074 33.9072C42.22 35.7947 39.306 35.2245 37.9863 33.1816L37.1914 32.0615C36.3581 30.8951 35.389 29.6028 34.0928 28.3066C32.0301 26.244 29.4618 24.0705 27.3965 22.4033C26.3665 21.5719 25.467 20.8699 24.8252 20.377C24.5045 20.1306 24.2478 19.937 24.0723 19.8047C23.9845 19.7386 23.9175 19.6873 23.8721 19.6533C23.8494 19.6363 23.8317 19.6237 23.8203 19.6152C23.8148 19.6111 23.8103 19.6075 23.8076 19.6055L23.8047 19.6035L22.8516 18.8965L23.71 18.0762L28.1094 13.877L28.7188 13.2949L29.3955 13.7969ZM8.39648 3.01953L15.3965 4.41895L15.6934 4.47852L15.9072 4.69336L21.3906 10.1768L26.8477 12.9053L28.0879 13.5264L27.1074 14.5068L23.3066 18.3066L22.8086 18.8057L22.1719 18.5039L19.0078 17.0049L16.8398 19.1729L18.4746 22.1143L18.8408 22.7734L18.3066 23.3066L14.5068 27.1074L13.5264 28.0879L12.9053 26.8477L10.1768 21.3906L4.69336 15.9072L4.47852 15.6934L4.41895 15.3965L3.01953 8.39648L2.91406 7.87109L3.29297 7.49316L4.98438 5.80176L5.69141 6.47754L10.291 10.877L10.6885 11.2568L10.5811 11.7959C10.4278 12.5624 10.6046 13.3898 11.1074 13.8926C11.9169 14.7021 13.0831 14.7021 13.8926 13.8926C14.7021 13.0831 14.7021 11.9169 13.8926 11.1074C13.3669 10.5817 12.7245 10.4354 11.9961 10.5811L11.4717 10.6855L5.78613 5L7.49316 3.29297L7.87109 2.91406L8.39648 3.01953Z" fill="#A3B7C5" stroke="#5F4A37" stroke-width="2"/>
</svg>
